<svg width="24" height="25" viewBox="0 0 24 25" fill="none" xmlns="http://www.w3.org/2000/svg">
<path d="M11.9906 2.5C12.7946 2.5 13.4653 3.15177 13.4653 3.95577C13.4653 4.04333 13.4575 4.12909 13.4427 4.21239C16.2661 4.86243 18.3714 7.39144 18.3714 10.4122V12.1704L18.3706 12.3815C18.3649 13.7874 18.3577 15.5808 19.5625 16.1123C20.5503 16.5481 20.5475 17.734 20.5457 18.4804L20.5456 18.5701H3.45453L3.45438 18.4804C3.4526 17.734 3.44976 16.5481 4.43764 16.1123C5.64239 15.5808 5.63515 13.7874 5.62947 12.3815L5.62871 12.1704V10.4122C5.62871 7.39144 7.73402 4.86243 10.5574 4.21239C10.5426 4.12909 10.5348 4.04333 10.5348 3.95577C10.5348 3.15177 11.1866 2.5 11.9906 2.5Z" fill="#AFB3BB"/>
<path fill-rule="evenodd" clip-rule="evenodd" d="M8.46756 19.6665C8.86079 21.2518 10.2932 22.4268 12.0001 22.4268C13.7069 22.4268 15.1394 21.2518 15.5326 19.6665H8.46756Z" fill="#AFB3BB"/>
</svg>
